<?xml version="1.0" encoding="UTF-8"?>
<svg width="1200" height="675" viewBox="0 0 1200 675" fill="none" xmlns="http://www.w3.org/2000/svg">
  <rect width="1200" height="675" fill="#111827"/>
  <g opacity="0.1">
    <circle cx="200" cy="150" r="120" fill="#60A5FA"/>
    <circle cx="1000" cy="500" r="160" fill="#A78BFA"/>
    <circle cx="900" cy="180" r="90" fill="#34D399"/>
  </g>
  <rect x="80" y="80" width="1040" height="515" rx="16" fill="url(#paint0_linear)"/>
  <g opacity="0.2">
    <rect x="120" y="160" width="520" height="18" rx="9" fill="#ffffff"/>
    <rect x="120" y="200" width="360" height="12" rx="6" fill="#ffffff"/>
    <rect x="120" y="230" width="420" height="12" rx="6" fill="#ffffff"/>
  </g>
  <g opacity="0.2">
    <rect x="120" y="420" width="200" height="12" rx="6" fill="#ffffff"/>
    <rect x="120" y="450" width="140" height="12" rx="6" fill="#ffffff"/>
  </g>
  <g opacity="0.25">
    <rect x="120" y="300" width="680" height="12" rx="6" fill="#ffffff"/>
    <rect x="120" y="325" width="640" height="12" rx="6" fill="#ffffff"/>
    <rect x="120" y="350" width="600" height="12" rx="6" fill="#ffffff"/>
  </g>
  <g opacity="0.8">
    <rect x="850" y="180" width="270" height="152" rx="12" fill="#1F2937"/>
    <circle cx="985" cy="256" r="30" fill="#10B981"/>
    <path d="M976 256L990 246V266L976 256Z" fill="white"/>
  </g>
  <text x="120" y="220" fill="#FFFFFF" font-family="Inter, Arial" font-size="48" font-weight="700">Course Preview</text>
  <text x="120" y="270" fill="#D1D5DB" font-family="Inter, Arial" font-size="20" font-weight="500">Engaging video and content will appear here</text>
  <defs>
    <linearGradient id="paint0_linear" x1="80" y1="80" x2="1120" y2="595" gradientUnits="userSpaceOnUse">
      <stop stop-color="#0EA5E9"/>
      <stop offset="1" stop-color="#8B5CF6"/>
    </linearGradient>
  </defs>
</svg>
